<svg xmlns="http://www.w3.org/2000/svg" viewBox="0 0 1190.17 347.09"><defs><style>.cls-1,.cls-3{fill:none;}.cls-1{stroke:#231f20;stroke-width:20px;}.cls-1,.cls-3,.cls-4{stroke-miterlimit:10;}.cls-2,.cls-4{fill:#231f20;}.cls-3,.cls-4{stroke:#fff;}.cls-3{stroke-width:0.5px;}.cls-5{font-size:94.27px;fill:#7f3f98;font-family:MyriadPro-Regular, Myriad Pro;}</style></defs><g id="Layer_2" data-name="Layer 2"><g id="Layer_1-2" data-name="Layer 1"><ellipse class="cls-1" cx="877.15" cy="146.48" rx="57" ry="66.83"/><ellipse class="cls-2" cx="879.86" cy="78.43" rx="19.5" ry="18.35"/><path class="cls-3" d="M890.51,71.5c-7.36-1.24-10.36,8.15-16.42,9.33"/><path class="cls-3" d="M898.7,72.87c-1.92-.45-3.86-.83-5.82-1.11"/><path class="cls-3" d="M886.6,87.37a17.59,17.59,0,0,0-12.51-6.54"/><path class="cls-3" d="M894.13,94.36a38.39,38.39,0,0,1-5.57-4.79"/><path class="cls-3" d="M893.11,72a16.36,16.36,0,0,1-.73,3.32c-.87,2.59-2.41,4.93-2.79,4.74s.14-1.21.41-3.21a27,27,0,0,0,.18-5.5"/><path class="cls-3" d="M888.71,89.77a14,14,0,0,0,2.19-2.61c1.53-2.34,2.42-5.2,2-5.47s-.88.83-2.32,2.24a22.52,22.52,0,0,1-4.31,3.31"/><ellipse class="cls-4" cx="876.62" cy="68.72" rx="2.53" ry="1.24"/><path d="M.14,148.18H24c.61.81,1.4,1.36,1.44,2,2.87,39.6,37.66,50.33,72.66,45.88a80,80,0,0,0,25.27-8c11.53-5.8,15.73-16.41,15.13-29.21-.65-13.74-7.65-23.23-20.25-27-20.77-6.25-41.85-11.59-63-16.44C22.69,107.9,7.46,93.47,6.5,67.82,5.36,37.18,22,12.61,50.94,4.33a108.42,108.42,0,0,1,71,3.6c25.53,10.15,36.72,30.63,37.71,59-7.31,0-14.24.45-21.05-.26-2.11-.23-5-3.28-5.68-5.59-8.36-27.47-30.44-41.4-60-36.31A77.92,77.92,0,0,0,47,34.1C34.75,41.31,32.59,54,34.64,67c1.78,11.31,10,17.32,20.47,19.89,20.72,5.07,41.6,9.49,62.35,14.47,45,10.82,63.79,57.64,37,92.65-12.65,16.55-31.27,24-50.74,25.32a202.86,202.86,0,0,1-57.6-4.16C16.56,208.47-1.82,180,.14,148.18Z"/><path d="M346,63.85h22.25c.32,6.09.61,11.78,1,19.86C381.55,68.68,395,59,413.9,58.62c19-.37,32.91,7.21,42.68,24.62,13-16.33,28.42-25.9,49.54-24.6C528.49,60,546.41,73.83,548.3,96.17c2.26,26.68,1.81,53.6,2.34,80.42.25,12.4,0,24.81,0,38.06H525c0-28.93.08-57.62-.06-86.31,0-7-.53-14-1.23-20.93-1.12-11.15-5.29-21-17-24.13-12.28-3.34-24-1-33.52,8.19-9.95,9.54-13.09,21.74-13.11,35,0,29.15,0,58.3,0,88.24H434.51c0-18.67,0-36.87,0-55.06,0-17.52.29-35.06-.29-52.56-.66-20-14.19-29.36-33.41-23.9-18.2,5.17-29.62,20.94-29.9,42.52-.34,25.69-.09,51.39-.1,77.09v12H346Z"/><path d="M586.92,5.89h24.16v76c12.14-13.07,24-21.8,39.9-22.95,29.91-2.15,52.92,12.19,62.89,41.23,9.56,27.88,7.73,55.69-3.82,83-16.14,38.12-70.11,52.37-99.27,15.53-.52,5.81-.94,10.56-1.49,16.82H586.92ZM694.39,140.82c-1.32-10.67-1.83-19.25-3.53-27.59-3.66-18.07-16.42-29.61-33.25-30.92-21.18-1.65-33.92,5.74-41.24,24.72s-7.91,38.87-3.52,58.51,19.71,32,37.69,32.37c19.19.36,32.47-9.69,38.68-30.56C692,158.14,693,148.42,694.39,140.82Z"/><path d="M1190.17,147.83H1080.5c-3.13,20.7,6.76,40,23.37,46.51,19.5,7.67,44.56,2.68,52.93-14.29,7.44-15.09,17.77-12.51,29.43-11.86-.22,21.48-21.4,44.89-44.09,49.62-61,12.72-96.18-27.73-90.09-88.78a106,106,0,0,1,9-32.32c12.63-28,37.73-40.57,72.12-37.65,24.64,2.08,43.27,19.1,51.42,47.15a111.34,111.34,0,0,1,4,17C1189.51,130.84,1189.61,138.6,1190.17,147.83Zm-27.51-21.41c.49-28.89-17.28-46.28-44.67-44.32-21.87,1.55-40.61,23.57-37.51,44.32Z"/><path d="M322.19,64.45c-10.21,28.22-20,56.34-30.56,84.15-13.37,35.13-27.25,70.08-41.28,105C245,266.9,236,276,220.37,277.64c-22.57,2.35-26-.91-21.6-23.66,24.13,2.4,36.89-7.85,40.15-32.79.41-3.16-1.08-6.74-2.23-9.93q-24.42-67.84-49-135.63c-1.29-3.57-2.38-7.21-4-12.26,7.25,0,13.38.43,19.44-.11,7-.63,10.08,2.05,12.24,8.92,10.93,34.75,22.5,69.29,33.88,103.91,1,3.15,2.24,6.26,4.12,11.49,11.6-35.11,22.52-68.18,33.44-101.25.12-.36.16-.76.28-1.13C294.92,61,294.92,61,322.19,64.45Z"/><path d="M983.4,84.29H963.45V64l19.46-1.1V21.46h26V63h23.79V84H1009v44.91c0,16,0,31.91,0,47.87,0,15.66,1,16.72,16.92,18.77,1.9.25,3.8.44,6.68.77v18.52l-11.34,1.93c-25.29,4.28-37.73-6.07-37.85-31.93C983.28,151.85,983.4,118.84,983.4,84.29Z"/><path d="M776.1,214.9h-24V64.05h24Z"/><path d="M776,6.25v28.3H752.11V6.25Z"/><text class="cls-5" transform="translate(489.99 323.52)"><tspan xml:space="preserve">B    C    I</tspan></text></g></g></svg>